<svg width="32" height="32" viewBox="0 0 32 32" fill="none" xmlns="http://www.w3.org/2000/svg">
<g filter="url(#filter0_d_51_827)">
<path d="M10.195 1.18952C11.218 0.414789 12.4668 -0.00306466 13.75 1.69229e-05C14.11 1.69229e-05 14.3965 0.187517 14.563 0.316517C14.749 0.463517 14.923 0.651017 15.079 0.838517C15.1896 0.972863 15.2501 1.14149 15.25 1.31552V6.75002H13.6225C13.4456 6.24961 13.0974 5.82785 12.6396 5.55929C12.1818 5.29074 11.6438 5.19267 11.1207 5.28242C10.5976 5.37217 10.123 5.64397 9.78092 6.04977C9.43882 6.45557 9.25118 6.96925 9.25118 7.50002C9.25118 8.03078 9.43882 8.54446 9.78092 8.95026C10.123 9.35606 10.5976 9.62786 11.1207 9.71761C11.6438 9.80737 12.1818 9.7093 12.6396 9.44074C13.0974 9.17218 13.4456 8.75043 13.6225 8.25002H15.25V22.3725C15.2501 22.4836 15.2255 22.5932 15.178 22.6936C15.1305 22.794 15.0614 22.8826 14.9755 22.953C14.2825 23.52 13.3555 24 12.25 24C10.471 24 9.1465 23.103 8.29 22.0305C7.67464 21.2664 7.25316 20.3647 7.0615 19.4025C6.47872 19.2471 5.93838 18.9626 5.4805 18.57C4.6525 17.8605 4 16.71 4 15C4 14.1645 4.0555 13.41 4.18 12.75H8.875C9.829 12.75 10.615 13.4625 10.735 14.3835C10.2362 14.564 9.81717 14.915 9.55198 15.3745C9.28679 15.8339 9.19247 16.3723 9.28567 16.8945C9.37887 17.4168 9.6536 17.8893 10.0613 18.2286C10.4691 18.568 10.9836 18.7524 11.5141 18.7492C12.0446 18.746 12.5569 18.5555 12.9606 18.2113C13.3642 17.8671 13.6333 17.3913 13.7202 16.868C13.8072 16.3447 13.7064 15.8075 13.4358 15.3513C13.1651 14.895 12.742 14.5491 12.241 14.3745C12.1778 13.5251 11.7957 12.7309 11.1714 12.1514C10.5471 11.5719 9.7268 11.2499 8.875 11.25H4.6615C4.891 10.803 5.1985 10.425 5.599 10.1565C5.70031 10.0895 5.80662 10.0303 5.917 9.97952C5.491 8.73152 5.602 7.27052 6.013 6.12302C6.2755 5.38502 6.6925 4.68752 7.2655 4.22252C7.6435 3.91502 8.0935 3.71252 8.5855 3.67352C8.8015 2.64902 9.409 1.80152 10.1965 1.18952H10.195ZM16.75 18.75H17.875C18.7701 18.75 19.6285 18.3944 20.2615 17.7615C20.8944 17.1286 21.25 16.2701 21.25 15.375V12.6225C21.7504 12.4456 22.1722 12.0975 22.4407 11.6397C22.7093 11.1818 22.8074 10.6438 22.7176 10.1207C22.6278 9.5976 22.356 9.12304 21.9502 8.78094C21.5444 8.43883 21.0308 8.2512 20.5 8.2512C19.9692 8.2512 19.4556 8.43883 19.0498 8.78094C18.644 9.12304 18.3722 9.5976 18.2824 10.1207C18.1927 10.6438 18.2907 11.1818 18.5593 11.6397C18.8278 12.0975 19.2496 12.4456 19.75 12.6225V15.375C19.75 16.41 18.91 17.25 17.875 17.25H16.75V1.31552C16.7499 1.14149 16.8104 0.972863 16.921 0.838517C17.0755 0.651017 17.251 0.463517 17.437 0.316517C17.602 0.187517 17.8885 1.69229e-05 18.25 1.69229e-05C19.5332 -0.00306466 20.782 0.414789 21.805 1.18952C22.5925 1.80152 23.2 2.64902 23.4145 3.67352C23.9065 3.71102 24.3565 3.91502 24.7345 4.22252C25.3075 4.68752 25.7245 5.38502 25.987 6.12302C26.398 7.27052 26.509 8.73302 26.083 9.97802C26.191 10.029 26.2975 10.089 26.401 10.158C26.8135 10.4325 27.127 10.8255 27.358 11.289C27.8125 12.1965 28 13.4625 28 15C28 16.7115 27.3475 17.8605 26.5195 18.57C26.0616 18.9626 25.5213 19.2471 24.9385 19.4025C24.7885 20.2395 24.3685 21.2085 23.71 22.0305C22.855 23.103 21.529 24 19.75 24C18.646 24 17.7175 23.52 17.026 22.953C16.9398 22.8828 16.8704 22.7942 16.8227 22.6938C16.7749 22.5934 16.7501 22.4837 16.75 22.3725V18.75ZM11.5 6.75002C11.3011 6.75002 11.1103 6.82903 10.9697 6.96969C10.829 7.11034 10.75 7.30111 10.75 7.50002C10.75 7.69893 10.829 7.88969 10.9697 8.03035C11.1103 8.171 11.3011 8.25002 11.5 8.25002C11.6989 8.25002 11.8897 8.171 12.0303 8.03035C12.171 7.88969 12.25 7.69893 12.25 7.50002C12.25 7.30111 12.171 7.11034 12.0303 6.96969C11.8897 6.82903 11.6989 6.75002 11.5 6.75002ZM11.5 15.75C11.3011 15.75 11.1103 15.829 10.9697 15.9697C10.829 16.1103 10.75 16.3011 10.75 16.5C10.75 16.6989 10.829 16.8897 10.9697 17.0303C11.1103 17.171 11.3011 17.25 11.5 17.25C11.6989 17.25 11.8897 17.171 12.0303 17.0303C12.171 16.8897 12.25 16.6989 12.25 16.5C12.25 16.3011 12.171 16.1103 12.0303 15.9697C11.8897 15.829 11.6989 15.75 11.5 15.75ZM20.5 11.25C20.6989 11.25 20.8897 11.171 21.0303 11.0303C21.171 10.8897 21.25 10.6989 21.25 10.5C21.25 10.3011 21.171 10.1103 21.0303 9.96969C20.8897 9.82903 20.6989 9.75002 20.5 9.75002C20.3011 9.75002 20.1103 9.82903 19.9697 9.96969C19.829 10.1103 19.75 10.3011 19.75 10.5C19.75 10.6989 19.829 10.8897 19.9697 11.0303C20.1103 11.171 20.3011 11.25 20.5 11.25Z" fill="white"/>
</g>
<defs>
<filter id="filter0_d_51_827" x="0" y="0" width="32" height="32" filterUnits="userSpaceOnUse" color-interpolation-filters="sRGB">
<feFlood flood-opacity="0" result="BackgroundImageFix"/>
<feColorMatrix in="SourceAlpha" type="matrix" values="0 0 0 0 0 0 0 0 0 0 0 0 0 0 0 0 0 0 127 0" result="hardAlpha"/>
<feOffset dy="4"/>
<feGaussianBlur stdDeviation="2"/>
<feComposite in2="hardAlpha" operator="out"/>
<feColorMatrix type="matrix" values="0 0 0 0 0 0 0 0 0 0 0 0 0 0 0 0 0 0 0.25 0"/>
<feBlend mode="normal" in2="BackgroundImageFix" result="effect1_dropShadow_51_827"/>
<feBlend mode="normal" in="SourceGraphic" in2="effect1_dropShadow_51_827" result="shape"/>
</filter>
</defs>
</svg>
