<svg width="34" height="30" viewBox="0 0 34 30" fill="none" xmlns="http://www.w3.org/2000/svg">
<path d="M29.5733 18.75H12.3968L12.7803 20.625H28.5079C29.4103 20.625 30.0792 21.4629 29.8792 22.3429L29.5559 23.7653C30.6511 24.297 31.4062 25.4196 31.4062 26.7188C31.4062 28.547 29.911 30.026 28.0767 29.9996C26.3293 29.9745 24.8921 28.5564 24.845 26.8094C24.8192 25.8551 25.2015 24.9901 25.8295 24.3749H13.5455C14.1535 24.9706 14.5312 25.8004 14.5312 26.7188C14.5312 28.5828 12.9769 30.0838 11.0936 29.9964C9.42129 29.9187 8.06127 28.5676 7.97338 26.8958C7.90553 25.6047 8.58486 24.4668 9.61699 23.8731L5.50096 3.75H1.40625C0.62959 3.75 0 3.12041 0 2.34375V1.40625C0 0.62959 0.62959 0 1.40625 0H7.41381C8.08184 0 8.65764 0.469981 8.79152 1.12441L9.32859 3.75H32.3432C33.2456 3.75 33.9144 4.58795 33.7144 5.46791L30.9445 17.6554C30.799 18.2957 30.2299 18.75 29.5733 18.75ZM23.615 11.25H21.0938V7.73438C21.0938 7.34607 20.7789 7.03125 20.3906 7.03125H18.9844C18.5961 7.03125 18.2812 7.34607 18.2812 7.73438V11.25H15.76C15.1336 11.25 14.8199 12.0074 15.2629 12.4503L19.1903 16.3778C19.4649 16.6523 19.9101 16.6523 20.1847 16.3778L24.1122 12.4503C24.5551 12.0074 24.2414 11.25 23.615 11.25Z" fill="white"/>
</svg>
