<svg width="28" height="23" viewBox="0 0 28 23" fill="none" xmlns="http://www.w3.org/2000/svg">
<path d="M24.8876 0.568136C24.8876 0.568136 27.3157 -0.378739 27.1126 1.92064C27.0457 2.86751 26.4388 6.18189 25.9663 9.76626L24.3476 20.385C24.3476 20.385 24.2126 21.9406 22.9982 22.2113C21.7845 22.4813 19.9632 21.2644 19.6257 20.9938C19.3557 20.7906 14.567 17.7469 12.8807 16.2594C12.4082 15.8531 11.8682 15.0419 12.9482 14.095L20.0301 7.33126C20.8395 6.52001 21.6488 4.62626 18.2763 6.92564L8.83258 13.3506C8.83258 13.3506 7.7532 14.0275 5.73008 13.4188L1.34508 12.0656C1.34508 12.0656 -0.273674 11.0513 2.49195 10.0369C9.23758 6.85814 17.5345 3.61189 24.8863 0.568136H24.8876Z" fill="white"/>
</svg>
