<?xml version="1.0" standalone="no"?>
<!DOCTYPE svg PUBLIC "-//W3C//DTD SVG 20010904//EN"
 "http://www.w3.org/TR/2001/REC-SVG-20010904/DTD/svg10.dtd">
<svg version="1.0" xmlns="http://www.w3.org/2000/svg"
 width="70.000000pt" height="70.000000pt" viewBox="0 0 70.000000 70.000000"
 preserveAspectRatio="xMidYMid meet">
<metadata>
Created by potrace 1.14, written by Peter Selinger 2001-2017
</metadata>
<g transform="translate(0.000000,70.000000) scale(0.100000,-0.100000)"
fill="#000000" stroke="none">
<path d="M37 668 c-14 -7 -15 -13 -7 -23 13 -16 40 -9 40 10 0 20 -13 25 -33
13z"/>
<path d="M270 621 c-51 -16 -89 -42 -131 -90 -24 -27 -59 -56 -76 -65 -32 -16
-61 -59 -57 -83 1 -7 2 -20 3 -28 0 -8 28 -41 61 -73 33 -33 60 -68 60 -78 1
-61 146 -138 240 -128 59 7 119 34 140 64 14 20 39 35 76 47 70 22 117 70 108
111 -8 29 -34 71 -59 92 -8 7 -15 20 -15 29 0 25 -38 92 -74 130 -63 68 -185
99 -276 72z m-194 -216 c-4 -22 -3 -35 4 -35 5 0 10 -15 10 -32 l-1 -33 -24
30 c-29 35 -32 61 -8 87 23 26 26 23 19 -17z m582 -120 c-2 -10 -18 -30 -37
-42 -39 -26 -58 -21 -24 7 19 15 27 36 32 85 1 6 8 1 17 -10 8 -11 13 -29 12
-40z"/>
<path d="M632 53 c2 -10 10 -18 18 -18 8 0 16 8 18 18 2 12 -3 17 -18 17 -15
0 -20 -5 -18 -17z"/>
</g>
</svg>
