<svg width="50" height="50" viewBox="0 0 50 50" fill="none" xmlns="http://www.w3.org/2000/svg">
<path d="M43.1495 28.252C43.3497 27.1533 43.4571 26.0303 43.4571 24.9072C43.4571 22.417 42.9688 20 42.0069 17.7295C41.0792 15.5322 39.7462 13.5596 38.0518 11.8652C36.3716 10.1808 34.3799 8.83914 32.1876 7.91504C29.9122 6.95313 27.5 6.46484 25.0098 6.46484C23.8379 6.46484 22.6612 6.57715 21.5186 6.79688C19.9376 5.9591 18.176 5.51995 16.3868 5.51758C13.4717 5.51758 10.7276 6.65527 8.66703 8.71582C7.65024 9.72738 6.84406 10.9305 6.2951 12.2555C5.74614 13.5806 5.46529 15.0013 5.46878 16.4355C5.46878 18.291 5.9473 20.1172 6.84085 21.7285C6.66019 22.7734 6.56253 23.8428 6.56253 24.9072C6.56253 27.3975 7.05081 29.8145 8.01273 32.085C8.94046 34.2822 10.2686 36.2549 11.9629 37.9492C13.6573 39.6436 15.6299 40.9717 17.8272 41.8994C20.1026 42.8613 22.5147 43.3496 25.0049 43.3496C26.0889 43.3496 27.1729 43.252 28.2374 43.0615C29.8731 43.9844 31.7188 44.4775 33.6085 44.4775C36.5235 44.4775 39.2676 43.3447 41.3282 41.2793C43.3936 39.2188 44.5264 36.4746 44.5264 33.5596C44.5313 31.7041 44.0528 29.873 43.1495 28.252ZM25.0831 36.2061C18.5303 36.2061 15.6006 32.9834 15.6006 30.5713C15.6006 29.3311 16.5137 28.4668 17.7735 28.4668C20.5762 28.4668 19.8536 32.4951 25.0831 32.4951C27.7637 32.4951 29.2432 31.04 29.2432 29.5508C29.2432 28.6572 28.8038 27.6611 27.0362 27.2266L21.2061 25.7715C16.5137 24.5947 15.6592 22.0557 15.6592 19.6729C15.6592 14.7217 20.3223 12.8613 24.7022 12.8613C28.7354 12.8613 33.4913 15.0928 33.4913 18.0615C33.4913 19.3359 32.3877 20.0732 31.128 20.0732C28.7354 20.0732 29.1749 16.7627 24.3555 16.7627C21.9629 16.7627 20.6397 17.8467 20.6397 19.3945C20.6397 20.9424 22.5293 21.4355 24.17 21.8115L28.4864 22.7686C33.2129 23.8232 34.4092 26.582 34.4092 29.1797C34.4092 33.1982 31.3184 36.2061 25.0831 36.2061Z" fill="white"/>
</svg>
