<svg width="50" height="50" viewBox="0 0 50 50" fill="none" xmlns="http://www.w3.org/2000/svg">
<path d="M30.875 8.87451C30.4612 9.61553 30.0925 10.3808 29.7708 11.1662C26.6099 10.6663 23.39 10.6663 20.2291 11.1662C19.9074 10.3808 19.5387 9.61553 19.125 8.87451C16.1474 9.38326 13.2529 10.2944 10.5208 11.5828C5.63524 18.6334 3.41961 27.1932 4.27078 35.7287C7.45461 38.1221 11.028 39.9476 14.8333 41.1245C15.6998 39.9799 16.4731 38.7677 17.1458 37.4995C15.9043 37.0418 14.711 36.4626 13.5833 35.7703C13.8926 35.5645 14.1852 35.3347 14.4583 35.0828C17.7467 36.6668 21.3499 37.4894 25 37.4894C28.65 37.4894 32.2532 36.6668 35.5416 35.0828C35.8333 35.3328 36.125 35.562 36.4166 35.7703C35.2828 36.4571 34.0907 37.0427 32.8541 37.5203C33.4989 38.8173 34.2516 40.0578 35.1041 41.2287C38.9047 40.0558 42.4719 38.2299 45.6458 35.8328C46.5174 27.2958 44.3 18.7291 39.3958 11.687C36.6944 10.3719 33.8284 9.42591 30.875 8.87451ZM18.0833 30.8537C17.0408 30.7788 16.0677 30.303 15.3685 29.5261C14.6693 28.7492 14.2983 27.7316 14.3333 26.687C14.293 25.641 14.6622 24.6205 15.3625 23.8424C16.0627 23.0644 17.0388 22.5901 18.0833 22.5203C19.1277 22.5901 20.1038 23.0644 20.8041 23.8424C21.5044 24.6205 21.8736 25.641 21.8333 26.687C21.8736 27.733 21.5044 28.7535 20.8041 29.5316C20.1038 30.3096 19.1277 30.7839 18.0833 30.8537ZM31.9166 30.8537C30.8741 30.7788 29.9011 30.303 29.2019 29.5261C28.5027 28.7492 28.1316 27.7316 28.1666 26.687C28.1263 25.641 28.4955 24.6205 29.1958 23.8424C29.8961 23.0644 30.8722 22.5901 31.9166 22.5203C32.963 22.5849 33.9423 23.0576 34.6436 23.8369C35.3449 24.6162 35.7123 25.6396 35.6666 26.687C35.7123 27.7344 35.3449 28.7579 34.6436 29.5371C33.9423 30.3164 32.963 30.7891 31.9166 30.8537Z" fill="white"/>
</svg>
